<?xml version="1.0" encoding="utf-8"?>
<!-- Generator: Adobe Illustrator 26.5.0, SVG Export Plug-In . SVG Version: 6.00 Build 0)  -->
<svg version="1.1"
	 id="svg25" xmlns:inkscape="http://www.inkscape.org/namespaces/inkscape" xmlns:sodipodi="http://sodipodi.sourceforge.net/DTD/sodipodi-0.dtd" xmlns:svg="http://www.w3.org/2000/svg" inkscape:version="1.1 (c4e8f9e, 2021-05-24)" sodipodi:docname="oshwa-UID-US002128.svg"
	 xmlns="http://www.w3.org/2000/svg" xmlns:xlink="http://www.w3.org/1999/xlink" x="0px" y="0px" viewBox="0 0 200 200"
	 style="enable-background:new 0 0 200 200;" xml:space="preserve">
<style type="text/css">
	.st0{fill:#FFFFFF;}
	.st1{font-family:'DejaVuSansMono';}
	.st2{font-size:33.75px;}
</style>
<sodipodi:namedview  bordercolor="#666666" borderopacity="1.0" id="namedview27" inkscape:current-layer="g23" inkscape:cx="96.414343" inkscape:cy="173.83798" inkscape:pagecheckerboard="0" inkscape:pageopacity="0.0" inkscape:pageshadow="2" inkscape:window-height="1003" inkscape:window-maximized="0" inkscape:window-width="1312" inkscape:window-x="586" inkscape:window-y="25" inkscape:zoom="3.765" pagecolor="#ffffff" showgrid="false">
	</sodipodi:namedview>
<g id="g23" transform="translate(-614.09 -142.78)">
	<g id="g17">
		<path id="path9" class="st0" d="M640.3,193.1v3v62.1v3h3h141.6h3v-3v-65.1H782l-0.1,62.1H646.3v-56.1h115.3v-6H643.3H640.3z"/>
		<path id="path11" class="st0" d="M674.9,227.9c0-5.1-0.5-8.8-1.6-11c-1-2.2-2.8-3.3-5.2-3.3c-2.4,0-4.1,1.1-5.2,3.3
			c-1,2.2-1.6,5.9-1.6,11c0,5.1,0.5,8.8,1.6,11c1.1,2.2,2.8,3.3,5.2,3.3c2.4,0,4.1-1.1,5.2-3.3C674.4,236.7,674.9,233,674.9,227.9
			 M679.9,227.9c0,6.1-1,10.6-2.9,13.6c-1.9,3-4.9,4.5-8.8,4.5s-6.9-1.5-8.8-4.5s-2.9-7.5-2.9-13.7c0-6.1,1-10.7,2.9-13.7
			c1.9-3,4.9-4.5,8.8-4.5c4,0,6.9,1.5,8.8,4.5C678.9,217.2,679.9,221.8,679.9,227.9"/>
		<path id="path13" class="st0" d="M706.3,211.6v4.8c-1.4-0.9-2.9-1.6-4.3-2.1c-1.4-0.5-2.9-0.7-4.4-0.7c-2.2,0-4,0.5-5.3,1.6
			c-1.3,1-1.9,2.4-1.9,4.2c0,1.5,0.4,2.7,1.3,3.5c0.9,0.8,2.5,1.5,4.8,2l2.5,0.6c3.3,0.8,5.7,2,7.2,3.6c1.5,1.6,2.2,3.9,2.2,6.7
			c0,3.3-1,5.9-3.1,7.6s-5.1,2.6-9,2.6c-1.6,0-3.3-0.2-4.9-0.5c-1.7-0.3-3.3-0.9-5-1.6v-5c1.8,1.1,3.5,2,5.1,2.5
			c1.6,0.5,3.2,0.8,4.9,0.8c2.4,0,4.2-0.5,5.6-1.6c1.3-1.1,2-2.6,2-4.5c0-1.8-0.5-3.1-1.4-4c-0.9-0.9-2.5-1.6-4.8-2.1l-2.5-0.6
			c-3.2-0.7-5.6-1.8-7.1-3.3c-1.5-1.5-2.2-3.5-2.2-6c0-3.1,1-5.6,3.1-7.5c2.1-1.9,4.9-2.8,8.4-2.8c1.3,0,2.8,0.2,4.2,0.5
			C703.1,210.5,704.7,211,706.3,211.6"/>
		<path id="path15" class="st0" d="M714.7,210.4h4.8v14.3h13v-14.3h4.8v35h-4.8v-16.7h-13v16.7h-4.8V210.4"/>
	</g>
	<path id="path19" class="st0" d="M740.3,210.4h4.6l3.4,28.4l4-18.8h4.9l4,18.8l11.4-54.5h4.6l-13.2,61h-4.5l-4.8-20.8l-4.7,20.8
		h-4.5L740.3,210.4"/>
	<text id="text21" transform="matrix(1 0 0 1 642.9553 300.145)" class="st0 st1 st2">US002128</text>
</g>
</svg>
