M48
; DRILL file {KiCad (6.0.1-0)} date Friday, July 15, 2022 at 01:54:30 PM
; FORMAT={-:-/ absolute / inch / decimal}
; #@! TF.CreationDate,2022-07-15T13:54:30-06:00
; #@! TF.GenerationSoftware,Kicad,Pcbnew,(6.0.1-0)
; #@! TF.FileFunction,Plated,1,4,PTH
FMAT,2
INCH
; #@! TA.AperFunction,Plated,PTH,ComponentDrill
T1C0.0276
; #@! TA.AperFunction,Plated,PTH,ComponentDrill
T2C0.0315
; #@! TA.AperFunction,Plated,PTH,ComponentDrill
T3C0.0354
; #@! TA.AperFunction,Plated,PTH,ComponentDrill
T4C0.0433
; #@! TA.AperFunction,Plated,PTH,ComponentDrill
T5C0.0450
%
G90
G05
T1
X0.95Y-1.38
X1.25Y-1.38
T2
X1.4Y-1.89
X1.4Y-2.29
X1.42Y-1.54
X1.47Y-1.76
X1.82Y-1.54
X1.87Y-1.76
X1.95Y-1.18
X1.95Y-1.58
T3
X1.1Y-1.67
X1.1Y-1.77
X1.1Y-1.87
X1.1Y-1.97
X1.1Y-2.38
X1.1Y-2.48
X1.1Y-2.58
X1.1Y-2.68
X1.16Y-1.18
X1.2Y-1.72
X1.2Y-1.82
X1.2Y-1.92
X1.2Y-2.02
X1.2Y-2.43
X1.2Y-2.53
X1.2Y-2.63
X1.2Y-2.73
X1.26Y-1.18
T4
X1.46Y-1.22
X1.56Y-1.22
X1.66Y-1.22
X1.67Y-2.78
X1.76Y-1.22
X1.77Y-2.78
X1.85Y-1.9
X1.85Y-2.3
X1.87Y-2.78
X1.97Y-2.78
X2.27Y-1.2
X2.27Y-1.3
X2.27Y-1.4
X2.27Y-1.5
X2.27Y-1.75
X2.27Y-1.85
X2.27Y-1.95
X2.27Y-2.05
X2.27Y-2.27
X2.27Y-2.37
X2.27Y-2.47
X2.27Y-2.57
T5
X1.5389Y-1.89
X1.6294Y-1.89
X1.72Y-1.89
T0
M30
