G04 #@! TF.GenerationSoftware,KiCad,Pcbnew,(6.0.1-0)*
G04 #@! TF.CreationDate,2022-07-15T13:54:37-06:00*
G04 #@! TF.ProjectId,Muse_smorgas_v3.0.1_screwterminal,4d757365-5f73-46d6-9f72-6761735f7633,Smorg_3.0*
G04 #@! TF.SameCoordinates,Original*
G04 #@! TF.FileFunction,Legend,Top*
G04 #@! TF.FilePolarity,Positive*
%FSLAX46Y46*%
G04 Gerber Fmt 4.6, Leading zero omitted, Abs format (unit mm)*
G04 Created by KiCad (PCBNEW (6.0.1-0)) date 2022-07-15 13:54:37*
%MOMM*%
%LPD*%
G01*
G04 APERTURE LIST*
%ADD10C,0.200000*%
%ADD11C,0.152400*%
%ADD12C,0.300000*%
%ADD13C,0.150000*%
%ADD14C,0.120000*%
%ADD15C,3.650000*%
G04 APERTURE END LIST*
D10*
X44667714Y-25956380D02*
X45248285Y-25956380D01*
X44958000Y-25956380D02*
X44958000Y-26972380D01*
X45054761Y-26827238D01*
X45151523Y-26730476D01*
X45248285Y-26682095D01*
X62689619Y-38063714D02*
X62689619Y-38644285D01*
X62689619Y-38354000D02*
X61673619Y-38354000D01*
X61818761Y-38450761D01*
X61915523Y-38547523D01*
X61963904Y-38644285D01*
X62689619Y-52033714D02*
X62689619Y-52614285D01*
X62689619Y-52324000D02*
X61673619Y-52324000D01*
X61818761Y-52420761D01*
X61915523Y-52517523D01*
X61963904Y-52614285D01*
X62689619Y-65241714D02*
X62689619Y-65822285D01*
X62689619Y-65532000D02*
X61673619Y-65532000D01*
X61818761Y-65628761D01*
X61915523Y-65725523D01*
X61963904Y-65822285D01*
D11*
X35106500Y-70906000D02*
X34056500Y-70906000D01*
X34806500Y-70556000D01*
X34056500Y-70206000D01*
X35106500Y-70206000D01*
X34406500Y-69256000D02*
X35106500Y-69256000D01*
X34406500Y-69706000D02*
X34956500Y-69706000D01*
X35056500Y-69656000D01*
X35106500Y-69556000D01*
X35106500Y-69406000D01*
X35056500Y-69306000D01*
X35006500Y-69256000D01*
X35056500Y-68806000D02*
X35106500Y-68706000D01*
X35106500Y-68506000D01*
X35056500Y-68406000D01*
X34956500Y-68356000D01*
X34906500Y-68356000D01*
X34806500Y-68406000D01*
X34756500Y-68506000D01*
X34756500Y-68656000D01*
X34706500Y-68756000D01*
X34606500Y-68806000D01*
X34556500Y-68806000D01*
X34456500Y-68756000D01*
X34406500Y-68656000D01*
X34406500Y-68506000D01*
X34456500Y-68406000D01*
X35056500Y-67506000D02*
X35106500Y-67606000D01*
X35106500Y-67806000D01*
X35056500Y-67906000D01*
X34956500Y-67956000D01*
X34556500Y-67956000D01*
X34456500Y-67906000D01*
X34406500Y-67806000D01*
X34406500Y-67606000D01*
X34456500Y-67506000D01*
X34556500Y-67456000D01*
X34656500Y-67456000D01*
X34756500Y-67956000D01*
X35106500Y-66556000D02*
X34056500Y-66556000D01*
X35056500Y-66556000D02*
X35106500Y-66656000D01*
X35106500Y-66856000D01*
X35056500Y-66956000D01*
X35006500Y-67006000D01*
X34906500Y-67056000D01*
X34606500Y-67056000D01*
X34506500Y-67006000D01*
X34456500Y-66956000D01*
X34406500Y-66856000D01*
X34406500Y-66656000D01*
X34456500Y-66556000D01*
X34406500Y-65606000D02*
X35106500Y-65606000D01*
X34406500Y-66056000D02*
X34956500Y-66056000D01*
X35056500Y-66006000D01*
X35106500Y-65906000D01*
X35106500Y-65756000D01*
X35056500Y-65656000D01*
X35006500Y-65606000D01*
X35106500Y-65106000D02*
X34406500Y-65106000D01*
X34056500Y-65106000D02*
X34106500Y-65156000D01*
X34156500Y-65106000D01*
X34106500Y-65056000D01*
X34056500Y-65106000D01*
X34156500Y-65106000D01*
X34406500Y-64606000D02*
X35106500Y-64606000D01*
X34506500Y-64606000D02*
X34456500Y-64556000D01*
X34406500Y-64456000D01*
X34406500Y-64306000D01*
X34456500Y-64206000D01*
X34556500Y-64156000D01*
X35106500Y-64156000D01*
X35106500Y-63506000D02*
X35056500Y-63606000D01*
X35006500Y-63656000D01*
X34906500Y-63706000D01*
X34606500Y-63706000D01*
X34506500Y-63656000D01*
X34456500Y-63606000D01*
X34406500Y-63506000D01*
X34406500Y-63356000D01*
X34456500Y-63256000D01*
X34506500Y-63206000D01*
X34606500Y-63156000D01*
X34906500Y-63156000D01*
X35006500Y-63206000D01*
X35056500Y-63256000D01*
X35106500Y-63356000D01*
X35106500Y-63506000D01*
X36747000Y-72856000D02*
X36797000Y-72706000D01*
X36797000Y-72456000D01*
X36747000Y-72356000D01*
X36697000Y-72306000D01*
X36597000Y-72256000D01*
X36497000Y-72256000D01*
X36397000Y-72306000D01*
X36347000Y-72356000D01*
X36297000Y-72456000D01*
X36247000Y-72656000D01*
X36197000Y-72756000D01*
X36147000Y-72806000D01*
X36047000Y-72856000D01*
X35947000Y-72856000D01*
X35847000Y-72806000D01*
X35797000Y-72756000D01*
X35747000Y-72656000D01*
X35747000Y-72406000D01*
X35797000Y-72256000D01*
X36797000Y-71806000D02*
X36097000Y-71806000D01*
X36197000Y-71806000D02*
X36147000Y-71756000D01*
X36097000Y-71656000D01*
X36097000Y-71506000D01*
X36147000Y-71406000D01*
X36247000Y-71356000D01*
X36797000Y-71356000D01*
X36247000Y-71356000D02*
X36147000Y-71306000D01*
X36097000Y-71206000D01*
X36097000Y-71056000D01*
X36147000Y-70956000D01*
X36247000Y-70906000D01*
X36797000Y-70906000D01*
X36797000Y-70256000D02*
X36747000Y-70356000D01*
X36697000Y-70406000D01*
X36597000Y-70456000D01*
X36297000Y-70456000D01*
X36197000Y-70406000D01*
X36147000Y-70356000D01*
X36097000Y-70256000D01*
X36097000Y-70106000D01*
X36147000Y-70006000D01*
X36197000Y-69956000D01*
X36297000Y-69906000D01*
X36597000Y-69906000D01*
X36697000Y-69956000D01*
X36747000Y-70006000D01*
X36797000Y-70106000D01*
X36797000Y-70256000D01*
X36797000Y-69456000D02*
X36097000Y-69456000D01*
X36297000Y-69456000D02*
X36197000Y-69406000D01*
X36147000Y-69356000D01*
X36097000Y-69256000D01*
X36097000Y-69156000D01*
X36097000Y-68356000D02*
X36947000Y-68356000D01*
X37047000Y-68406000D01*
X37097000Y-68456000D01*
X37147000Y-68556000D01*
X37147000Y-68706000D01*
X37097000Y-68806000D01*
X36747000Y-68356000D02*
X36797000Y-68456000D01*
X36797000Y-68656000D01*
X36747000Y-68756000D01*
X36697000Y-68806000D01*
X36597000Y-68856000D01*
X36297000Y-68856000D01*
X36197000Y-68806000D01*
X36147000Y-68756000D01*
X36097000Y-68656000D01*
X36097000Y-68456000D01*
X36147000Y-68356000D01*
X36797000Y-67406000D02*
X36247000Y-67406000D01*
X36147000Y-67456000D01*
X36097000Y-67556000D01*
X36097000Y-67756000D01*
X36147000Y-67856000D01*
X36747000Y-67406000D02*
X36797000Y-67506000D01*
X36797000Y-67756000D01*
X36747000Y-67856000D01*
X36647000Y-67906000D01*
X36547000Y-67906000D01*
X36447000Y-67856000D01*
X36397000Y-67756000D01*
X36397000Y-67506000D01*
X36347000Y-67406000D01*
X36747000Y-66956000D02*
X36797000Y-66856000D01*
X36797000Y-66656000D01*
X36747000Y-66556000D01*
X36647000Y-66506000D01*
X36597000Y-66506000D01*
X36497000Y-66556000D01*
X36447000Y-66656000D01*
X36447000Y-66806000D01*
X36397000Y-66906000D01*
X36297000Y-66956000D01*
X36247000Y-66956000D01*
X36147000Y-66906000D01*
X36097000Y-66806000D01*
X36097000Y-66656000D01*
X36147000Y-66556000D01*
X36797000Y-66056000D02*
X35747000Y-66056000D01*
X36147000Y-66056000D02*
X36097000Y-65956000D01*
X36097000Y-65756000D01*
X36147000Y-65656000D01*
X36197000Y-65606000D01*
X36297000Y-65556000D01*
X36597000Y-65556000D01*
X36697000Y-65606000D01*
X36747000Y-65656000D01*
X36797000Y-65756000D01*
X36797000Y-65956000D01*
X36747000Y-66056000D01*
X36797000Y-64956000D02*
X36747000Y-65056000D01*
X36697000Y-65106000D01*
X36597000Y-65156000D01*
X36297000Y-65156000D01*
X36197000Y-65106000D01*
X36147000Y-65056000D01*
X36097000Y-64956000D01*
X36097000Y-64806000D01*
X36147000Y-64706000D01*
X36197000Y-64656000D01*
X36297000Y-64606000D01*
X36597000Y-64606000D01*
X36697000Y-64656000D01*
X36747000Y-64706000D01*
X36797000Y-64806000D01*
X36797000Y-64956000D01*
X36797000Y-63706000D02*
X36247000Y-63706000D01*
X36147000Y-63756000D01*
X36097000Y-63856000D01*
X36097000Y-64056000D01*
X36147000Y-64156000D01*
X36747000Y-63706000D02*
X36797000Y-63806000D01*
X36797000Y-64056000D01*
X36747000Y-64156000D01*
X36647000Y-64206000D01*
X36547000Y-64206000D01*
X36447000Y-64156000D01*
X36397000Y-64056000D01*
X36397000Y-63806000D01*
X36347000Y-63706000D01*
X36797000Y-63206000D02*
X36097000Y-63206000D01*
X36297000Y-63206000D02*
X36197000Y-63156000D01*
X36147000Y-63106000D01*
X36097000Y-63006000D01*
X36097000Y-62906000D01*
X36797000Y-62106000D02*
X35747000Y-62106000D01*
X36747000Y-62106000D02*
X36797000Y-62206000D01*
X36797000Y-62406000D01*
X36747000Y-62506000D01*
X36697000Y-62556000D01*
X36597000Y-62606000D01*
X36297000Y-62606000D01*
X36197000Y-62556000D01*
X36147000Y-62506000D01*
X36097000Y-62406000D01*
X36097000Y-62206000D01*
X36147000Y-62106000D01*
X37787500Y-71356000D02*
X38487500Y-71106000D01*
X37787500Y-70856000D01*
X38437500Y-70056000D02*
X38487500Y-70156000D01*
X38487500Y-70356000D01*
X38437500Y-70456000D01*
X38337500Y-70506000D01*
X37937500Y-70506000D01*
X37837500Y-70456000D01*
X37787500Y-70356000D01*
X37787500Y-70156000D01*
X37837500Y-70056000D01*
X37937500Y-70006000D01*
X38037500Y-70006000D01*
X38137500Y-70506000D01*
X38487500Y-69556000D02*
X37787500Y-69556000D01*
X37987500Y-69556000D02*
X37887500Y-69506000D01*
X37837500Y-69456000D01*
X37787500Y-69356000D01*
X37787500Y-69256000D01*
X38437500Y-68956000D02*
X38487500Y-68856000D01*
X38487500Y-68656000D01*
X38437500Y-68556000D01*
X38337500Y-68506000D01*
X38287500Y-68506000D01*
X38187500Y-68556000D01*
X38137500Y-68656000D01*
X38137500Y-68806000D01*
X38087500Y-68906000D01*
X37987500Y-68956000D01*
X37937500Y-68956000D01*
X37837500Y-68906000D01*
X37787500Y-68806000D01*
X37787500Y-68656000D01*
X37837500Y-68556000D01*
X38487500Y-68056000D02*
X37787500Y-68056000D01*
X37437500Y-68056000D02*
X37487500Y-68106000D01*
X37537500Y-68056000D01*
X37487500Y-68006000D01*
X37437500Y-68056000D01*
X37537500Y-68056000D01*
X38487500Y-67406000D02*
X38437500Y-67506000D01*
X38387500Y-67556000D01*
X38287500Y-67606000D01*
X37987500Y-67606000D01*
X37887500Y-67556000D01*
X37837500Y-67506000D01*
X37787500Y-67406000D01*
X37787500Y-67256000D01*
X37837500Y-67156000D01*
X37887500Y-67106000D01*
X37987500Y-67056000D01*
X38287500Y-67056000D01*
X38387500Y-67106000D01*
X38437500Y-67156000D01*
X38487500Y-67256000D01*
X38487500Y-67406000D01*
X37787500Y-66606000D02*
X38487500Y-66606000D01*
X37887500Y-66606000D02*
X37837500Y-66556000D01*
X37787500Y-66456000D01*
X37787500Y-66306000D01*
X37837500Y-66206000D01*
X37937500Y-66156000D01*
X38487500Y-66156000D01*
X37437500Y-64956000D02*
X37437500Y-64306000D01*
X37837500Y-64656000D01*
X37837500Y-64506000D01*
X37887500Y-64406000D01*
X37937500Y-64356000D01*
X38037500Y-64306000D01*
X38287500Y-64306000D01*
X38387500Y-64356000D01*
X38437500Y-64406000D01*
X38487500Y-64506000D01*
X38487500Y-64806000D01*
X38437500Y-64906000D01*
X38387500Y-64956000D01*
X38387500Y-63856000D02*
X38437500Y-63806000D01*
X38487500Y-63856000D01*
X38437500Y-63906000D01*
X38387500Y-63856000D01*
X38487500Y-63856000D01*
X37437500Y-63156000D02*
X37437500Y-63056000D01*
X37487500Y-62956000D01*
X37537500Y-62906000D01*
X37637500Y-62856000D01*
X37837500Y-62806000D01*
X38087500Y-62806000D01*
X38287500Y-62856000D01*
X38387500Y-62906000D01*
X38437500Y-62956000D01*
X38487500Y-63056000D01*
X38487500Y-63156000D01*
X38437500Y-63256000D01*
X38387500Y-63306000D01*
X38287500Y-63356000D01*
X38087500Y-63406000D01*
X37837500Y-63406000D01*
X37637500Y-63356000D01*
X37537500Y-63306000D01*
X37487500Y-63256000D01*
X37437500Y-63156000D01*
X30927523Y-27226380D02*
X31411333Y-27226380D01*
X31459714Y-26742571D01*
X31411333Y-26790952D01*
X31314571Y-26839333D01*
X31072666Y-26839333D01*
X30975904Y-26790952D01*
X30927523Y-26742571D01*
X30879142Y-26645809D01*
X30879142Y-26403904D01*
X30927523Y-26307142D01*
X30975904Y-26258761D01*
X31072666Y-26210380D01*
X31314571Y-26210380D01*
X31411333Y-26258761D01*
X31459714Y-26307142D01*
X30588857Y-27226380D02*
X30250190Y-26210380D01*
X29911523Y-27226380D01*
D10*
X42454285Y-75643619D02*
X41873714Y-75643619D01*
X42164000Y-75643619D02*
X42164000Y-74627619D01*
X42067238Y-74772761D01*
X41970476Y-74869523D01*
X41873714Y-74917904D01*
D12*
X52129571Y-33877285D02*
X53129571Y-33877285D01*
X51558142Y-34234428D02*
X52629571Y-34591571D01*
X52629571Y-33663000D01*
D10*
X53743903Y-34163000D02*
G75*
G03*
X53743903Y-34163000I-1419903J0D01*
G01*
D12*
X40618857Y-36897428D02*
X41333142Y-36897428D01*
X41404571Y-36183142D01*
X41333142Y-36254571D01*
X41190285Y-36326000D01*
X40833142Y-36326000D01*
X40690285Y-36254571D01*
X40618857Y-36183142D01*
X40547428Y-36040285D01*
X40547428Y-35683142D01*
X40618857Y-35540285D01*
X40690285Y-35468857D01*
X40833142Y-35397428D01*
X41190285Y-35397428D01*
X41333142Y-35468857D01*
X41404571Y-35540285D01*
D10*
X42440903Y-36195000D02*
G75*
G03*
X42440903Y-36195000I-1419903J0D01*
G01*
D12*
X51629571Y-48760000D02*
X51629571Y-47831428D01*
X52201000Y-48331428D01*
X52201000Y-48117142D01*
X52272428Y-47974285D01*
X52343857Y-47902857D01*
X52486714Y-47831428D01*
X52843857Y-47831428D01*
X52986714Y-47902857D01*
X53058142Y-47974285D01*
X53129571Y-48117142D01*
X53129571Y-48545714D01*
X53058142Y-48688571D01*
X52986714Y-48760000D01*
D10*
X53870903Y-48260000D02*
G75*
G03*
X53870903Y-48260000I-1419903J0D01*
G01*
X47520903Y-65405000D02*
G75*
G03*
X47520903Y-65405000I-1419903J0D01*
G01*
X53743903Y-61595000D02*
G75*
G03*
X53743903Y-61595000I-1419903J0D01*
G01*
D12*
X51645428Y-62023571D02*
X51574000Y-61952142D01*
X51502571Y-61809285D01*
X51502571Y-61452142D01*
X51574000Y-61309285D01*
X51645428Y-61237857D01*
X51788285Y-61166428D01*
X51931142Y-61166428D01*
X52145428Y-61237857D01*
X53002571Y-62095000D01*
X53002571Y-61166428D01*
X46529571Y-66083571D02*
X45672428Y-66083571D01*
X46101000Y-66083571D02*
X46101000Y-64583571D01*
X45958142Y-64797857D01*
X45815285Y-64940714D01*
X45672428Y-65012142D01*
D13*
X61776000Y-28627428D02*
X61776000Y-29056000D01*
X61747428Y-29141714D01*
X61690285Y-29198857D01*
X61604571Y-29227428D01*
X61547428Y-29227428D01*
X62318857Y-28627428D02*
X62204571Y-28627428D01*
X62147428Y-28656000D01*
X62118857Y-28684571D01*
X62061714Y-28770285D01*
X62033142Y-28884571D01*
X62033142Y-29113142D01*
X62061714Y-29170285D01*
X62090285Y-29198857D01*
X62147428Y-29227428D01*
X62261714Y-29227428D01*
X62318857Y-29198857D01*
X62347428Y-29170285D01*
X62376000Y-29113142D01*
X62376000Y-28970285D01*
X62347428Y-28913142D01*
X62318857Y-28884571D01*
X62261714Y-28856000D01*
X62147428Y-28856000D01*
X62090285Y-28884571D01*
X62061714Y-28913142D01*
X62033142Y-28970285D01*
X61776000Y-56059428D02*
X61776000Y-56488000D01*
X61747428Y-56573714D01*
X61690285Y-56630857D01*
X61604571Y-56659428D01*
X61547428Y-56659428D01*
X62318857Y-56259428D02*
X62318857Y-56659428D01*
X62176000Y-56030857D02*
X62033142Y-56459428D01*
X62404571Y-56459428D01*
X61776000Y-42597428D02*
X61776000Y-43026000D01*
X61747428Y-43111714D01*
X61690285Y-43168857D01*
X61604571Y-43197428D01*
X61547428Y-43197428D01*
X62347428Y-42597428D02*
X62061714Y-42597428D01*
X62033142Y-42883142D01*
X62061714Y-42854571D01*
X62118857Y-42826000D01*
X62261714Y-42826000D01*
X62318857Y-42854571D01*
X62347428Y-42883142D01*
X62376000Y-42940285D01*
X62376000Y-43083142D01*
X62347428Y-43140285D01*
X62318857Y-43168857D01*
X62261714Y-43197428D01*
X62118857Y-43197428D01*
X62061714Y-43168857D01*
X62033142Y-43140285D01*
X51233428Y-75130000D02*
X51662000Y-75130000D01*
X51747714Y-75158571D01*
X51804857Y-75215714D01*
X51833428Y-75301428D01*
X51833428Y-75358571D01*
X51233428Y-74901428D02*
X51233428Y-74530000D01*
X51462000Y-74730000D01*
X51462000Y-74644285D01*
X51490571Y-74587142D01*
X51519142Y-74558571D01*
X51576285Y-74530000D01*
X51719142Y-74530000D01*
X51776285Y-74558571D01*
X51804857Y-74587142D01*
X51833428Y-74644285D01*
X51833428Y-74815714D01*
X51804857Y-74872857D01*
X51776285Y-74901428D01*
X35231428Y-26870000D02*
X35660000Y-26870000D01*
X35745714Y-26898571D01*
X35802857Y-26955714D01*
X35831428Y-27041428D01*
X35831428Y-27098571D01*
X35231428Y-26641428D02*
X35231428Y-26241428D01*
X35831428Y-26498571D01*
X46547142Y-60723428D02*
X46547142Y-60123428D01*
X46690000Y-60123428D01*
X46775714Y-60152000D01*
X46832857Y-60209142D01*
X46861428Y-60266285D01*
X46890000Y-60380571D01*
X46890000Y-60466285D01*
X46861428Y-60580571D01*
X46832857Y-60637714D01*
X46775714Y-60694857D01*
X46690000Y-60723428D01*
X46547142Y-60723428D01*
X47118571Y-60180571D02*
X47147142Y-60152000D01*
X47204285Y-60123428D01*
X47347142Y-60123428D01*
X47404285Y-60152000D01*
X47432857Y-60180571D01*
X47461428Y-60237714D01*
X47461428Y-60294857D01*
X47432857Y-60380571D01*
X47090000Y-60723428D01*
X47461428Y-60723428D01*
X49176000Y-44975428D02*
X48976000Y-44689714D01*
X48833142Y-44975428D02*
X48833142Y-44375428D01*
X49061714Y-44375428D01*
X49118857Y-44404000D01*
X49147428Y-44432571D01*
X49176000Y-44489714D01*
X49176000Y-44575428D01*
X49147428Y-44632571D01*
X49118857Y-44661142D01*
X49061714Y-44689714D01*
X48833142Y-44689714D01*
X49718857Y-44375428D02*
X49433142Y-44375428D01*
X49404571Y-44661142D01*
X49433142Y-44632571D01*
X49490285Y-44604000D01*
X49633142Y-44604000D01*
X49690285Y-44632571D01*
X49718857Y-44661142D01*
X49747428Y-44718285D01*
X49747428Y-44861142D01*
X49718857Y-44918285D01*
X49690285Y-44946857D01*
X49633142Y-44975428D01*
X49490285Y-44975428D01*
X49433142Y-44946857D01*
X49404571Y-44918285D01*
X22252000Y-35323428D02*
X22052000Y-35037714D01*
X21909142Y-35323428D02*
X21909142Y-34723428D01*
X22137714Y-34723428D01*
X22194857Y-34752000D01*
X22223428Y-34780571D01*
X22252000Y-34837714D01*
X22252000Y-34923428D01*
X22223428Y-34980571D01*
X22194857Y-35009142D01*
X22137714Y-35037714D01*
X21909142Y-35037714D01*
X22823428Y-35323428D02*
X22480571Y-35323428D01*
X22652000Y-35323428D02*
X22652000Y-34723428D01*
X22594857Y-34809142D01*
X22537714Y-34866285D01*
X22480571Y-34894857D01*
X27243142Y-30243428D02*
X27243142Y-29643428D01*
X27386000Y-29643428D01*
X27471714Y-29672000D01*
X27528857Y-29729142D01*
X27557428Y-29786285D01*
X27586000Y-29900571D01*
X27586000Y-29986285D01*
X27557428Y-30100571D01*
X27528857Y-30157714D01*
X27471714Y-30214857D01*
X27386000Y-30243428D01*
X27243142Y-30243428D01*
X28157428Y-30243428D02*
X27814571Y-30243428D01*
X27986000Y-30243428D02*
X27986000Y-29643428D01*
X27928857Y-29729142D01*
X27871714Y-29786285D01*
X27814571Y-29814857D01*
X31167428Y-73860000D02*
X31596000Y-73860000D01*
X31681714Y-73888571D01*
X31738857Y-73945714D01*
X31767428Y-74031428D01*
X31767428Y-74088571D01*
X31767428Y-73260000D02*
X31767428Y-73602857D01*
X31767428Y-73431428D02*
X31167428Y-73431428D01*
X31253142Y-73488571D01*
X31310285Y-73545714D01*
X31338857Y-73602857D01*
X31167428Y-55826000D02*
X31596000Y-55826000D01*
X31681714Y-55854571D01*
X31738857Y-55911714D01*
X31767428Y-55997428D01*
X31767428Y-56054571D01*
X31224571Y-55568857D02*
X31196000Y-55540285D01*
X31167428Y-55483142D01*
X31167428Y-55340285D01*
X31196000Y-55283142D01*
X31224571Y-55254571D01*
X31281714Y-55226000D01*
X31338857Y-55226000D01*
X31424571Y-55254571D01*
X31767428Y-55597428D01*
X31767428Y-55226000D01*
X35460000Y-60215428D02*
X35260000Y-59929714D01*
X35117142Y-60215428D02*
X35117142Y-59615428D01*
X35345714Y-59615428D01*
X35402857Y-59644000D01*
X35431428Y-59672571D01*
X35460000Y-59729714D01*
X35460000Y-59815428D01*
X35431428Y-59872571D01*
X35402857Y-59901142D01*
X35345714Y-59929714D01*
X35117142Y-59929714D01*
X35688571Y-59672571D02*
X35717142Y-59644000D01*
X35774285Y-59615428D01*
X35917142Y-59615428D01*
X35974285Y-59644000D01*
X36002857Y-59672571D01*
X36031428Y-59729714D01*
X36031428Y-59786857D01*
X36002857Y-59872571D01*
X35660000Y-60215428D01*
X36031428Y-60215428D01*
X49801428Y-28040000D02*
X49515714Y-28240000D01*
X49801428Y-28382857D02*
X49201428Y-28382857D01*
X49201428Y-28154285D01*
X49230000Y-28097142D01*
X49258571Y-28068571D01*
X49315714Y-28040000D01*
X49401428Y-28040000D01*
X49458571Y-28068571D01*
X49487142Y-28097142D01*
X49515714Y-28154285D01*
X49515714Y-28382857D01*
X49201428Y-27840000D02*
X49201428Y-27468571D01*
X49430000Y-27668571D01*
X49430000Y-27582857D01*
X49458571Y-27525714D01*
X49487142Y-27497142D01*
X49544285Y-27468571D01*
X49687142Y-27468571D01*
X49744285Y-27497142D01*
X49772857Y-27525714D01*
X49801428Y-27582857D01*
X49801428Y-27754285D01*
X49772857Y-27811428D01*
X49744285Y-27840000D01*
X34190000Y-39387428D02*
X33990000Y-39101714D01*
X33847142Y-39387428D02*
X33847142Y-38787428D01*
X34075714Y-38787428D01*
X34132857Y-38816000D01*
X34161428Y-38844571D01*
X34190000Y-38901714D01*
X34190000Y-38987428D01*
X34161428Y-39044571D01*
X34132857Y-39073142D01*
X34075714Y-39101714D01*
X33847142Y-39101714D01*
X34704285Y-38987428D02*
X34704285Y-39387428D01*
X34561428Y-38758857D02*
X34418571Y-39187428D01*
X34790000Y-39187428D01*
X39185857Y-59129571D02*
X39128714Y-59101000D01*
X39071571Y-59043857D01*
X38985857Y-58958142D01*
X38928714Y-58929571D01*
X38871571Y-58929571D01*
X38900142Y-59072428D02*
X38843000Y-59043857D01*
X38785857Y-58986714D01*
X38757285Y-58872428D01*
X38757285Y-58672428D01*
X38785857Y-58558142D01*
X38843000Y-58501000D01*
X38900142Y-58472428D01*
X39014428Y-58472428D01*
X39071571Y-58501000D01*
X39128714Y-58558142D01*
X39157285Y-58672428D01*
X39157285Y-58872428D01*
X39128714Y-58986714D01*
X39071571Y-59043857D01*
X39014428Y-59072428D01*
X38900142Y-59072428D01*
X39728714Y-59072428D02*
X39385857Y-59072428D01*
X39557285Y-59072428D02*
X39557285Y-58472428D01*
X39500142Y-58558142D01*
X39443000Y-58615285D01*
X39385857Y-58643857D01*
D14*
X61058000Y-39900000D02*
X61058000Y-39400000D01*
X60318000Y-39900000D02*
X61058000Y-39900000D01*
X54498000Y-28920000D02*
X60818000Y-28920000D01*
X54498000Y-39660000D02*
X60818000Y-39660000D01*
X60818000Y-39660000D02*
X60818000Y-28920000D01*
X54498000Y-39660000D02*
X54498000Y-28920000D01*
X54958000Y-39660000D02*
X54958000Y-28920000D01*
X60258000Y-39660000D02*
X60258000Y-28920000D01*
X61058000Y-67078000D02*
X61058000Y-66578000D01*
X60318000Y-67078000D02*
X61058000Y-67078000D01*
X54498000Y-56098000D02*
X60818000Y-56098000D01*
X54498000Y-66838000D02*
X60818000Y-66838000D01*
X60818000Y-66838000D02*
X60818000Y-56098000D01*
X54498000Y-66838000D02*
X54498000Y-56098000D01*
X54958000Y-66838000D02*
X54958000Y-56098000D01*
X60258000Y-66838000D02*
X60258000Y-56098000D01*
X61058000Y-53870000D02*
X61058000Y-53370000D01*
X60318000Y-53870000D02*
X61058000Y-53870000D01*
X54498000Y-42890000D02*
X60818000Y-42890000D01*
X54498000Y-53630000D02*
X60818000Y-53630000D01*
X60818000Y-53630000D02*
X60818000Y-42890000D01*
X54498000Y-53630000D02*
X54498000Y-42890000D01*
X54958000Y-53630000D02*
X54958000Y-42890000D01*
X60258000Y-53630000D02*
X60258000Y-42890000D01*
X40618000Y-74012000D02*
X41118000Y-74012000D01*
X40618000Y-73272000D02*
X40618000Y-74012000D01*
X51598000Y-67452000D02*
X51598000Y-73772000D01*
X40858000Y-67452000D02*
X40858000Y-73772000D01*
X40858000Y-73772000D02*
X51598000Y-73772000D01*
X40858000Y-67452000D02*
X51598000Y-67452000D01*
X40858000Y-67912000D02*
X51598000Y-67912000D01*
X40858000Y-73212000D02*
X51598000Y-73212000D01*
X46504000Y-27588000D02*
X46004000Y-27588000D01*
X46504000Y-28328000D02*
X46504000Y-27588000D01*
X35524000Y-34148000D02*
X35524000Y-27828000D01*
X46264000Y-34148000D02*
X46264000Y-27828000D01*
X46264000Y-27828000D02*
X35524000Y-27828000D01*
X46264000Y-34148000D02*
X35524000Y-34148000D01*
X46264000Y-33688000D02*
X35524000Y-33688000D01*
X46264000Y-28388000D02*
X35524000Y-28388000D01*
X45520000Y-56060000D02*
X48460000Y-56060000D01*
X48460000Y-56060000D02*
X48460000Y-50620000D01*
X48460000Y-50620000D02*
X45520000Y-50620000D01*
X45520000Y-50620000D02*
X45520000Y-56060000D01*
X46990000Y-57080000D02*
X46990000Y-56060000D01*
X46990000Y-49600000D02*
X46990000Y-50620000D01*
X45520000Y-55160000D02*
X48460000Y-55160000D01*
X45520000Y-55040000D02*
X48460000Y-55040000D01*
X45520000Y-55280000D02*
X48460000Y-55280000D01*
X38378000Y-44704000D02*
X39148000Y-44704000D01*
X46458000Y-44704000D02*
X45688000Y-44704000D01*
X39148000Y-46074000D02*
X45688000Y-46074000D01*
X39148000Y-43334000D02*
X39148000Y-46074000D01*
X45688000Y-43334000D02*
X39148000Y-43334000D01*
X45688000Y-46074000D02*
X45688000Y-43334000D01*
X26080000Y-34192000D02*
X26080000Y-35912000D01*
X26080000Y-35912000D02*
X29800000Y-35912000D01*
X29800000Y-35912000D02*
X29800000Y-34192000D01*
X29800000Y-34192000D02*
X26080000Y-34192000D01*
X25010000Y-35052000D02*
X26080000Y-35052000D01*
X30870000Y-35052000D02*
X29800000Y-35052000D01*
X32406335Y-28893392D02*
G75*
G03*
X29174000Y-28736484I-1672335J-1078608D01*
G01*
X29174000Y-31207516D02*
G75*
G03*
X32406335Y-31050608I1560000J1235516D01*
G01*
X31775130Y-28892163D02*
G75*
G03*
X29693039Y-28892000I-1041130J-1079837D01*
G01*
X29693039Y-31052000D02*
G75*
G03*
X31775130Y-31051837I1040961J1080000D01*
G01*
X29174000Y-28736000D02*
X29174000Y-28892000D01*
X29174000Y-31052000D02*
X29174000Y-31208000D01*
X13720000Y-57282000D02*
X13720000Y-72522000D01*
X31750000Y-72522000D02*
X22760000Y-72512000D01*
X31750000Y-72522000D02*
X31750000Y-57282000D01*
X31750000Y-57282000D02*
X22750000Y-57282000D01*
X20420000Y-72512000D02*
X13720000Y-72522000D01*
X20430000Y-57282000D02*
X13720000Y-57282000D01*
X13720000Y-39248000D02*
X13720000Y-54488000D01*
X31750000Y-54488000D02*
X22760000Y-54478000D01*
X31750000Y-54488000D02*
X31750000Y-39248000D01*
X31750000Y-39248000D02*
X22750000Y-39248000D01*
X20420000Y-54478000D02*
X13720000Y-54488000D01*
X20430000Y-39248000D02*
X13720000Y-39248000D01*
X36870000Y-49876000D02*
X34250000Y-49876000D01*
X34250000Y-49876000D02*
X34250000Y-56296000D01*
X34250000Y-56296000D02*
X36870000Y-56296000D01*
X36870000Y-56296000D02*
X36870000Y-49876000D01*
X35560000Y-48986000D02*
X35560000Y-49876000D01*
X35560000Y-57186000D02*
X35560000Y-56296000D01*
X48220000Y-38262000D02*
X50840000Y-38262000D01*
X50840000Y-38262000D02*
X50840000Y-31842000D01*
X50840000Y-31842000D02*
X48220000Y-31842000D01*
X48220000Y-31842000D02*
X48220000Y-38262000D01*
X49530000Y-39152000D02*
X49530000Y-38262000D01*
X49530000Y-30952000D02*
X49530000Y-31842000D01*
X37938000Y-37806000D02*
X37938000Y-40426000D01*
X37938000Y-40426000D02*
X44358000Y-40426000D01*
X44358000Y-40426000D02*
X44358000Y-37806000D01*
X44358000Y-37806000D02*
X37938000Y-37806000D01*
X37048000Y-39116000D02*
X37938000Y-39116000D01*
X45248000Y-39116000D02*
X44358000Y-39116000D01*
X44759000Y-49886000D02*
X38018000Y-49886000D01*
X44759000Y-57126000D02*
X44389000Y-57126000D01*
X38387000Y-57126000D02*
X38018000Y-57126000D01*
X44759000Y-57126000D02*
X44759000Y-49886000D01*
X38018000Y-57126000D02*
X38018000Y-49886000D01*
X43688000Y-49886000D02*
X43688000Y-48856000D01*
X41388000Y-49886000D02*
X41388000Y-48872000D01*
X39088000Y-49886000D02*
X39088000Y-48872000D01*
D15*
X21590000Y-70832000D03*
X21590000Y-58962000D03*
X21590000Y-52798000D03*
X21590000Y-40928000D03*
M02*
