G04 #@! TF.GenerationSoftware,KiCad,Pcbnew,(6.0.1-0)*
G04 #@! TF.CreationDate,2022-07-15T13:54:37-06:00*
G04 #@! TF.ProjectId,Muse_smorgas_v3.0.1_screwterminal,4d757365-5f73-46d6-9f72-6761735f7633,Smorg_3.0*
G04 #@! TF.SameCoordinates,Original*
G04 #@! TF.FileFunction,Legend,Bot*
G04 #@! TF.FilePolarity,Positive*
%FSLAX46Y46*%
G04 Gerber Fmt 4.6, Leading zero omitted, Abs format (unit mm)*
G04 Created by KiCad (PCBNEW (6.0.1-0)) date 2022-07-15 13:54:37*
%MOMM*%
%LPD*%
G01*
G04 APERTURE LIST*
%ADD10C,0.300000*%
%ADD11C,0.152400*%
%ADD12C,0.200000*%
%ADD13C,3.650000*%
G04 APERTURE END LIST*
D10*
X61313142Y-39806857D02*
X61384571Y-40021142D01*
X61384571Y-40378285D01*
X61313142Y-40521142D01*
X61241714Y-40592571D01*
X61098857Y-40664000D01*
X60956000Y-40664000D01*
X60813142Y-40592571D01*
X60741714Y-40521142D01*
X60670285Y-40378285D01*
X60598857Y-40092571D01*
X60527428Y-39949714D01*
X60456000Y-39878285D01*
X60313142Y-39806857D01*
X60170285Y-39806857D01*
X60027428Y-39878285D01*
X59956000Y-39949714D01*
X59884571Y-40092571D01*
X59884571Y-40449714D01*
X59956000Y-40664000D01*
X59813142Y-42378285D02*
X61741714Y-41092571D01*
X61384571Y-42878285D02*
X59884571Y-42878285D01*
X61384571Y-43735428D01*
X59884571Y-43735428D01*
X61241714Y-44449714D02*
X61313142Y-44521142D01*
X61384571Y-44449714D01*
X61313142Y-44378285D01*
X61241714Y-44449714D01*
X61384571Y-44449714D01*
X60456000Y-44449714D02*
X60527428Y-44521142D01*
X60598857Y-44449714D01*
X60527428Y-44378285D01*
X60456000Y-44449714D01*
X60598857Y-44449714D01*
D11*
X52630977Y-39624000D02*
X52679358Y-39575619D01*
X52727739Y-39430476D01*
X52727739Y-39333714D01*
X52679358Y-39188571D01*
X52582596Y-39091809D01*
X52485834Y-39043428D01*
X52292310Y-38995047D01*
X52147167Y-38995047D01*
X51953643Y-39043428D01*
X51856881Y-39091809D01*
X51760120Y-39188571D01*
X51711739Y-39333714D01*
X51711739Y-39430476D01*
X51760120Y-39575619D01*
X51808500Y-39624000D01*
X52050405Y-40494857D02*
X52727739Y-40494857D01*
X52050405Y-40059428D02*
X52582596Y-40059428D01*
X52679358Y-40107809D01*
X52727739Y-40204571D01*
X52727739Y-40349714D01*
X52679358Y-40446476D01*
X52630977Y-40494857D01*
X52727739Y-41123809D02*
X52679358Y-41027047D01*
X52582596Y-40978666D01*
X51711739Y-40978666D01*
X52050405Y-41365714D02*
X52050405Y-41752761D01*
X51711739Y-41510857D02*
X52582596Y-41510857D01*
X52679358Y-41559238D01*
X52727739Y-41656000D01*
X52727739Y-41752761D01*
X52050405Y-42526857D02*
X52727739Y-42526857D01*
X52050405Y-42091428D02*
X52582596Y-42091428D01*
X52679358Y-42139809D01*
X52727739Y-42236571D01*
X52727739Y-42381714D01*
X52679358Y-42478476D01*
X52630977Y-42526857D01*
X52727739Y-43010666D02*
X52050405Y-43010666D01*
X52243929Y-43010666D02*
X52147167Y-43059047D01*
X52098786Y-43107428D01*
X52050405Y-43204190D01*
X52050405Y-43300952D01*
X52727739Y-44075047D02*
X52195548Y-44075047D01*
X52098786Y-44026666D01*
X52050405Y-43929904D01*
X52050405Y-43736380D01*
X52098786Y-43639619D01*
X52679358Y-44075047D02*
X52727739Y-43978285D01*
X52727739Y-43736380D01*
X52679358Y-43639619D01*
X52582596Y-43591238D01*
X52485834Y-43591238D01*
X52389072Y-43639619D01*
X52340691Y-43736380D01*
X52340691Y-43978285D01*
X52292310Y-44075047D01*
X52727739Y-44704000D02*
X52679358Y-44607238D01*
X52582596Y-44558857D01*
X51711739Y-44558857D01*
X51711739Y-45720000D02*
X51711739Y-46300571D01*
X52727739Y-46010285D02*
X51711739Y-46010285D01*
X52679358Y-47026285D02*
X52727739Y-46929523D01*
X52727739Y-46736000D01*
X52679358Y-46639238D01*
X52582596Y-46590857D01*
X52195548Y-46590857D01*
X52098786Y-46639238D01*
X52050405Y-46736000D01*
X52050405Y-46929523D01*
X52098786Y-47026285D01*
X52195548Y-47074666D01*
X52292310Y-47074666D01*
X52389072Y-46590857D01*
X52679358Y-47945523D02*
X52727739Y-47848761D01*
X52727739Y-47655238D01*
X52679358Y-47558476D01*
X52630977Y-47510095D01*
X52534215Y-47461714D01*
X52243929Y-47461714D01*
X52147167Y-47510095D01*
X52098786Y-47558476D01*
X52050405Y-47655238D01*
X52050405Y-47848761D01*
X52098786Y-47945523D01*
X52727739Y-48380952D02*
X51711739Y-48380952D01*
X52727739Y-48816380D02*
X52195548Y-48816380D01*
X52098786Y-48768000D01*
X52050405Y-48671238D01*
X52050405Y-48526095D01*
X52098786Y-48429333D01*
X52147167Y-48380952D01*
X52050405Y-49300190D02*
X52727739Y-49300190D01*
X52147167Y-49300190D02*
X52098786Y-49348571D01*
X52050405Y-49445333D01*
X52050405Y-49590476D01*
X52098786Y-49687238D01*
X52195548Y-49735619D01*
X52727739Y-49735619D01*
X52727739Y-50364571D02*
X52679358Y-50267809D01*
X52630977Y-50219428D01*
X52534215Y-50171047D01*
X52243929Y-50171047D01*
X52147167Y-50219428D01*
X52098786Y-50267809D01*
X52050405Y-50364571D01*
X52050405Y-50509714D01*
X52098786Y-50606476D01*
X52147167Y-50654857D01*
X52243929Y-50703238D01*
X52534215Y-50703238D01*
X52630977Y-50654857D01*
X52679358Y-50606476D01*
X52727739Y-50509714D01*
X52727739Y-50364571D01*
X52727739Y-51283809D02*
X52679358Y-51187047D01*
X52582596Y-51138666D01*
X51711739Y-51138666D01*
X52727739Y-51816000D02*
X52679358Y-51719238D01*
X52630977Y-51670857D01*
X52534215Y-51622476D01*
X52243929Y-51622476D01*
X52147167Y-51670857D01*
X52098786Y-51719238D01*
X52050405Y-51816000D01*
X52050405Y-51961142D01*
X52098786Y-52057904D01*
X52147167Y-52106285D01*
X52243929Y-52154666D01*
X52534215Y-52154666D01*
X52630977Y-52106285D01*
X52679358Y-52057904D01*
X52727739Y-51961142D01*
X52727739Y-51816000D01*
X52050405Y-53025523D02*
X52872881Y-53025523D01*
X52969643Y-52977142D01*
X53018024Y-52928761D01*
X53066405Y-52832000D01*
X53066405Y-52686857D01*
X53018024Y-52590095D01*
X52679358Y-53025523D02*
X52727739Y-52928761D01*
X52727739Y-52735238D01*
X52679358Y-52638476D01*
X52630977Y-52590095D01*
X52534215Y-52541714D01*
X52243929Y-52541714D01*
X52147167Y-52590095D01*
X52098786Y-52638476D01*
X52050405Y-52735238D01*
X52050405Y-52928761D01*
X52098786Y-53025523D01*
X52050405Y-53412571D02*
X52727739Y-53654476D01*
X52050405Y-53896380D02*
X52727739Y-53654476D01*
X52969643Y-53557714D01*
X53018024Y-53509333D01*
X53066405Y-53412571D01*
X52727739Y-55057523D02*
X51711739Y-55057523D01*
X51711739Y-55299428D01*
X51760120Y-55444571D01*
X51856881Y-55541333D01*
X51953643Y-55589714D01*
X52147167Y-55638095D01*
X52292310Y-55638095D01*
X52485834Y-55589714D01*
X52582596Y-55541333D01*
X52679358Y-55444571D01*
X52727739Y-55299428D01*
X52727739Y-55057523D01*
X52679358Y-56460571D02*
X52727739Y-56363809D01*
X52727739Y-56170285D01*
X52679358Y-56073523D01*
X52582596Y-56025142D01*
X52195548Y-56025142D01*
X52098786Y-56073523D01*
X52050405Y-56170285D01*
X52050405Y-56363809D01*
X52098786Y-56460571D01*
X52195548Y-56508952D01*
X52292310Y-56508952D01*
X52389072Y-56025142D01*
X52050405Y-56847619D02*
X52727739Y-57089523D01*
X52050405Y-57331428D01*
X52679358Y-58105523D02*
X52727739Y-58008761D01*
X52727739Y-57815238D01*
X52679358Y-57718476D01*
X52582596Y-57670095D01*
X52195548Y-57670095D01*
X52098786Y-57718476D01*
X52050405Y-57815238D01*
X52050405Y-58008761D01*
X52098786Y-58105523D01*
X52195548Y-58153904D01*
X52292310Y-58153904D01*
X52389072Y-57670095D01*
X52727739Y-58734476D02*
X52679358Y-58637714D01*
X52582596Y-58589333D01*
X51711739Y-58589333D01*
X52727739Y-59266666D02*
X52679358Y-59169904D01*
X52630977Y-59121523D01*
X52534215Y-59073142D01*
X52243929Y-59073142D01*
X52147167Y-59121523D01*
X52098786Y-59169904D01*
X52050405Y-59266666D01*
X52050405Y-59411809D01*
X52098786Y-59508571D01*
X52147167Y-59556952D01*
X52243929Y-59605333D01*
X52534215Y-59605333D01*
X52630977Y-59556952D01*
X52679358Y-59508571D01*
X52727739Y-59411809D01*
X52727739Y-59266666D01*
X52050405Y-60040761D02*
X53066405Y-60040761D01*
X52098786Y-60040761D02*
X52050405Y-60137523D01*
X52050405Y-60331047D01*
X52098786Y-60427809D01*
X52147167Y-60476190D01*
X52243929Y-60524571D01*
X52534215Y-60524571D01*
X52630977Y-60476190D01*
X52679358Y-60427809D01*
X52727739Y-60331047D01*
X52727739Y-60137523D01*
X52679358Y-60040761D01*
X52727739Y-60960000D02*
X52050405Y-60960000D01*
X52147167Y-60960000D02*
X52098786Y-61008380D01*
X52050405Y-61105142D01*
X52050405Y-61250285D01*
X52098786Y-61347047D01*
X52195548Y-61395428D01*
X52727739Y-61395428D01*
X52195548Y-61395428D02*
X52098786Y-61443809D01*
X52050405Y-61540571D01*
X52050405Y-61685714D01*
X52098786Y-61782476D01*
X52195548Y-61830857D01*
X52727739Y-61830857D01*
X52679358Y-62701714D02*
X52727739Y-62604952D01*
X52727739Y-62411428D01*
X52679358Y-62314666D01*
X52582596Y-62266285D01*
X52195548Y-62266285D01*
X52098786Y-62314666D01*
X52050405Y-62411428D01*
X52050405Y-62604952D01*
X52098786Y-62701714D01*
X52195548Y-62750095D01*
X52292310Y-62750095D01*
X52389072Y-62266285D01*
X52050405Y-63185523D02*
X52727739Y-63185523D01*
X52147167Y-63185523D02*
X52098786Y-63233904D01*
X52050405Y-63330666D01*
X52050405Y-63475809D01*
X52098786Y-63572571D01*
X52195548Y-63620952D01*
X52727739Y-63620952D01*
X52050405Y-63959619D02*
X52050405Y-64346666D01*
X51711739Y-64104761D02*
X52582596Y-64104761D01*
X52679358Y-64153142D01*
X52727739Y-64249904D01*
X52727739Y-64346666D01*
X52727739Y-65943238D02*
X52727739Y-65459428D01*
X51711739Y-65459428D01*
X52727739Y-66717333D02*
X52195548Y-66717333D01*
X52098786Y-66668952D01*
X52050405Y-66572190D01*
X52050405Y-66378666D01*
X52098786Y-66281904D01*
X52679358Y-66717333D02*
X52727739Y-66620571D01*
X52727739Y-66378666D01*
X52679358Y-66281904D01*
X52582596Y-66233523D01*
X52485834Y-66233523D01*
X52389072Y-66281904D01*
X52340691Y-66378666D01*
X52340691Y-66620571D01*
X52292310Y-66717333D01*
X52727739Y-67201142D02*
X51711739Y-67201142D01*
X52098786Y-67201142D02*
X52050405Y-67297904D01*
X52050405Y-67491428D01*
X52098786Y-67588190D01*
X52147167Y-67636571D01*
X52243929Y-67684952D01*
X52534215Y-67684952D01*
X52630977Y-67636571D01*
X52679358Y-67588190D01*
X52727739Y-67491428D01*
X52727739Y-67297904D01*
X52679358Y-67201142D01*
X54363499Y-48139047D02*
X53347499Y-48139047D01*
X54073213Y-48477714D01*
X53347499Y-48816380D01*
X54363499Y-48816380D01*
X53686165Y-49735619D02*
X54363499Y-49735619D01*
X53686165Y-49300190D02*
X54218356Y-49300190D01*
X54315118Y-49348571D01*
X54363499Y-49445333D01*
X54363499Y-49590476D01*
X54315118Y-49687238D01*
X54266737Y-49735619D01*
X54315118Y-50171047D02*
X54363499Y-50267809D01*
X54363499Y-50461333D01*
X54315118Y-50558095D01*
X54218356Y-50606476D01*
X54169975Y-50606476D01*
X54073213Y-50558095D01*
X54024832Y-50461333D01*
X54024832Y-50316190D01*
X53976451Y-50219428D01*
X53879689Y-50171047D01*
X53831308Y-50171047D01*
X53734546Y-50219428D01*
X53686165Y-50316190D01*
X53686165Y-50461333D01*
X53734546Y-50558095D01*
X54315118Y-51428952D02*
X54363499Y-51332190D01*
X54363499Y-51138666D01*
X54315118Y-51041904D01*
X54218356Y-50993523D01*
X53831308Y-50993523D01*
X53734546Y-51041904D01*
X53686165Y-51138666D01*
X53686165Y-51332190D01*
X53734546Y-51428952D01*
X53831308Y-51477333D01*
X53928070Y-51477333D01*
X54024832Y-50993523D01*
X54363499Y-52348190D02*
X53347499Y-52348190D01*
X54315118Y-52348190D02*
X54363499Y-52251428D01*
X54363499Y-52057904D01*
X54315118Y-51961142D01*
X54266737Y-51912761D01*
X54169975Y-51864380D01*
X53879689Y-51864380D01*
X53782927Y-51912761D01*
X53734546Y-51961142D01*
X53686165Y-52057904D01*
X53686165Y-52251428D01*
X53734546Y-52348190D01*
X53686165Y-53267428D02*
X54363499Y-53267428D01*
X53686165Y-52832000D02*
X54218356Y-52832000D01*
X54315118Y-52880380D01*
X54363499Y-52977142D01*
X54363499Y-53122285D01*
X54315118Y-53219047D01*
X54266737Y-53267428D01*
X54363499Y-53751238D02*
X53686165Y-53751238D01*
X53347499Y-53751238D02*
X53395880Y-53702857D01*
X53444260Y-53751238D01*
X53395880Y-53799619D01*
X53347499Y-53751238D01*
X53444260Y-53751238D01*
X53686165Y-54235047D02*
X54363499Y-54235047D01*
X53782927Y-54235047D02*
X53734546Y-54283428D01*
X53686165Y-54380190D01*
X53686165Y-54525333D01*
X53734546Y-54622095D01*
X53831308Y-54670476D01*
X54363499Y-54670476D01*
X54363499Y-55299428D02*
X54315118Y-55202666D01*
X54266737Y-55154285D01*
X54169975Y-55105904D01*
X53879689Y-55105904D01*
X53782927Y-55154285D01*
X53734546Y-55202666D01*
X53686165Y-55299428D01*
X53686165Y-55444571D01*
X53734546Y-55541333D01*
X53782927Y-55589714D01*
X53879689Y-55638095D01*
X54169975Y-55638095D01*
X54266737Y-55589714D01*
X54315118Y-55541333D01*
X54363499Y-55444571D01*
X54363499Y-55299428D01*
X54266737Y-56073523D02*
X54315118Y-56121904D01*
X54363499Y-56073523D01*
X54315118Y-56025142D01*
X54266737Y-56073523D01*
X54363499Y-56073523D01*
X54363499Y-56702476D02*
X54315118Y-56605714D01*
X54266737Y-56557333D01*
X54169975Y-56508952D01*
X53879689Y-56508952D01*
X53782927Y-56557333D01*
X53734546Y-56605714D01*
X53686165Y-56702476D01*
X53686165Y-56847619D01*
X53734546Y-56944380D01*
X53782927Y-56992761D01*
X53879689Y-57041142D01*
X54169975Y-57041142D01*
X54266737Y-56992761D01*
X54315118Y-56944380D01*
X54363499Y-56847619D01*
X54363499Y-56702476D01*
X54363499Y-57476571D02*
X53686165Y-57476571D01*
X53879689Y-57476571D02*
X53782927Y-57524952D01*
X53734546Y-57573333D01*
X53686165Y-57670095D01*
X53686165Y-57766857D01*
X53686165Y-58540952D02*
X54508641Y-58540952D01*
X54605403Y-58492571D01*
X54653784Y-58444190D01*
X54702165Y-58347428D01*
X54702165Y-58202285D01*
X54653784Y-58105523D01*
X54315118Y-58540952D02*
X54363499Y-58444190D01*
X54363499Y-58250666D01*
X54315118Y-58153904D01*
X54266737Y-58105523D01*
X54169975Y-58057142D01*
X53879689Y-58057142D01*
X53782927Y-58105523D01*
X53734546Y-58153904D01*
X53686165Y-58250666D01*
X53686165Y-58444190D01*
X53734546Y-58540952D01*
X61362166Y-57615666D02*
X60473166Y-57615666D01*
X60473166Y-57827333D01*
X60515500Y-57954333D01*
X60600166Y-58039000D01*
X60684833Y-58081333D01*
X60854166Y-58123666D01*
X60981166Y-58123666D01*
X61150500Y-58081333D01*
X61235166Y-58039000D01*
X61319833Y-57954333D01*
X61362166Y-57827333D01*
X61362166Y-57615666D01*
X61362166Y-58885666D02*
X60896500Y-58885666D01*
X60811833Y-58843333D01*
X60769500Y-58758666D01*
X60769500Y-58589333D01*
X60811833Y-58504666D01*
X61319833Y-58885666D02*
X61362166Y-58801000D01*
X61362166Y-58589333D01*
X61319833Y-58504666D01*
X61235166Y-58462333D01*
X61150500Y-58462333D01*
X61065833Y-58504666D01*
X61023500Y-58589333D01*
X61023500Y-58801000D01*
X60981166Y-58885666D01*
X60769500Y-59182000D02*
X60769500Y-59520666D01*
X60473166Y-59309000D02*
X61235166Y-59309000D01*
X61319833Y-59351333D01*
X61362166Y-59436000D01*
X61362166Y-59520666D01*
X61319833Y-60155666D02*
X61362166Y-60071000D01*
X61362166Y-59901666D01*
X61319833Y-59817000D01*
X61235166Y-59774666D01*
X60896500Y-59774666D01*
X60811833Y-59817000D01*
X60769500Y-59901666D01*
X60769500Y-60071000D01*
X60811833Y-60155666D01*
X60896500Y-60198000D01*
X60981166Y-60198000D01*
X61065833Y-59774666D01*
X61277500Y-60579000D02*
X61319833Y-60621333D01*
X61362166Y-60579000D01*
X61319833Y-60536666D01*
X61277500Y-60579000D01*
X61362166Y-60579000D01*
X60811833Y-60579000D02*
X60854166Y-60621333D01*
X60896500Y-60579000D01*
X60854166Y-60536666D01*
X60811833Y-60579000D01*
X60896500Y-60579000D01*
X61362166Y-62145333D02*
X61362166Y-61637333D01*
X61362166Y-61891333D02*
X60473166Y-61891333D01*
X60600166Y-61806666D01*
X60684833Y-61722000D01*
X60727166Y-61637333D01*
X61362166Y-62568666D02*
X61362166Y-62738000D01*
X61319833Y-62822666D01*
X61277500Y-62865000D01*
X61150500Y-62949666D01*
X60981166Y-62992000D01*
X60642500Y-62992000D01*
X60557833Y-62949666D01*
X60515500Y-62907333D01*
X60473166Y-62822666D01*
X60473166Y-62653333D01*
X60515500Y-62568666D01*
X60557833Y-62526333D01*
X60642500Y-62484000D01*
X60854166Y-62484000D01*
X60938833Y-62526333D01*
X60981166Y-62568666D01*
X61023500Y-62653333D01*
X61023500Y-62822666D01*
X60981166Y-62907333D01*
X60938833Y-62949666D01*
X60854166Y-62992000D01*
X61362166Y-63838666D02*
X61362166Y-63330666D01*
X61362166Y-63584666D02*
X60473166Y-63584666D01*
X60600166Y-63500000D01*
X60684833Y-63415333D01*
X60727166Y-63330666D01*
X60557833Y-64177333D02*
X60515500Y-64219666D01*
X60473166Y-64304333D01*
X60473166Y-64516000D01*
X60515500Y-64600666D01*
X60557833Y-64643000D01*
X60642500Y-64685333D01*
X60727166Y-64685333D01*
X60854166Y-64643000D01*
X61362166Y-64135000D01*
X61362166Y-64685333D01*
X61362166Y-65532000D02*
X61362166Y-65024000D01*
X61362166Y-65278000D02*
X60473166Y-65278000D01*
X60600166Y-65193333D01*
X60684833Y-65108666D01*
X60727166Y-65024000D01*
X61362166Y-65955333D02*
X61362166Y-66124666D01*
X61319833Y-66209333D01*
X61277500Y-66251666D01*
X61150500Y-66336333D01*
X60981166Y-66378666D01*
X60642500Y-66378666D01*
X60557833Y-66336333D01*
X60515500Y-66294000D01*
X60473166Y-66209333D01*
X60473166Y-66040000D01*
X60515500Y-65955333D01*
X60557833Y-65913000D01*
X60642500Y-65870666D01*
X60854166Y-65870666D01*
X60938833Y-65913000D01*
X60981166Y-65955333D01*
X61023500Y-66040000D01*
X61023500Y-66209333D01*
X60981166Y-66294000D01*
X60938833Y-66336333D01*
X60854166Y-66378666D01*
D12*
X59436000Y-45593000D02*
X59436000Y-50038000D01*
X61976000Y-45593000D02*
X59436000Y-45593000D01*
X61976000Y-50038000D02*
X61976000Y-45593000D01*
X59436000Y-50038000D02*
X61976000Y-50038000D01*
D13*
X21590000Y-70832000D03*
X21590000Y-58962000D03*
X21590000Y-52798000D03*
X21590000Y-40928000D03*
G36*
X61918121Y-45613002D02*
G01*
X61964614Y-45666658D01*
X61976000Y-45719000D01*
X61976000Y-49912000D01*
X61955998Y-49980121D01*
X61902342Y-50026614D01*
X61850000Y-50038000D01*
X59562000Y-50038000D01*
X59493879Y-50017998D01*
X59447386Y-49964342D01*
X59436000Y-49912000D01*
X59436000Y-45719000D01*
X59456002Y-45650879D01*
X59509658Y-45604386D01*
X59562000Y-45593000D01*
X61850000Y-45593000D01*
X61918121Y-45613002D01*
G37*
M02*
