G04 #@! TF.GenerationSoftware,KiCad,Pcbnew,(6.0.1-0)*
G04 #@! TF.CreationDate,2022-07-15T13:54:37-06:00*
G04 #@! TF.ProjectId,Muse_smorgas_v3.0.1_screwterminal,4d757365-5f73-46d6-9f72-6761735f7633,Smorg_3.0*
G04 #@! TF.SameCoordinates,Original*
G04 #@! TF.FileFunction,Copper,L4,Bot*
G04 #@! TF.FilePolarity,Positive*
%FSLAX46Y46*%
G04 Gerber Fmt 4.6, Leading zero omitted, Abs format (unit mm)*
G04 Created by KiCad (PCBNEW (6.0.1-0)) date 2022-07-15 13:54:37*
%MOMM*%
%LPD*%
G01*
G04 APERTURE LIST*
G04 #@! TA.AperFunction,ComponentPad*
%ADD10C,2.200000*%
G04 #@! TD*
G04 #@! TA.AperFunction,ComponentPad*
%ADD11R,2.200000X2.200000*%
G04 #@! TD*
G04 #@! TA.AperFunction,ComponentPad*
%ADD12O,2.200000X2.200000*%
G04 #@! TD*
G04 #@! TA.AperFunction,ComponentPad*
%ADD13O,1.600000X1.600000*%
G04 #@! TD*
G04 #@! TA.AperFunction,ComponentPad*
%ADD14C,1.600000*%
G04 #@! TD*
G04 #@! TA.AperFunction,ComponentPad*
%ADD15C,1.400000*%
G04 #@! TD*
G04 #@! TA.AperFunction,ComponentPad*
%ADD16O,1.400000X1.400000*%
G04 #@! TD*
G04 #@! TA.AperFunction,ComponentPad*
%ADD17R,1.800000X1.800000*%
G04 #@! TD*
G04 #@! TA.AperFunction,ComponentPad*
%ADD18C,1.800000*%
G04 #@! TD*
G04 #@! TA.AperFunction,WasherPad*
%ADD19C,3.650000*%
G04 #@! TD*
G04 #@! TA.AperFunction,ComponentPad*
%ADD20R,1.500000X1.500000*%
G04 #@! TD*
G04 #@! TA.AperFunction,ComponentPad*
%ADD21C,1.500000*%
G04 #@! TD*
G04 #@! TA.AperFunction,ComponentPad*
%ADD22R,1.778000X1.778000*%
G04 #@! TD*
G04 #@! TA.AperFunction,ComponentPad*
%ADD23O,1.778000X1.778000*%
G04 #@! TD*
G04 #@! TA.AperFunction,Conductor*
%ADD24C,0.381000*%
G04 #@! TD*
G04 #@! TA.AperFunction,Conductor*
%ADD25C,0.508000*%
G04 #@! TD*
G04 APERTURE END LIST*
D10*
X57658000Y-30480000D03*
X57658000Y-33020000D03*
X57658000Y-35560000D03*
D11*
X57658000Y-38100000D03*
D10*
X57658000Y-57658000D03*
X57658000Y-60198000D03*
X57658000Y-62738000D03*
D11*
X57658000Y-65278000D03*
D10*
X57658000Y-44450000D03*
X57658000Y-46990000D03*
X57658000Y-49530000D03*
D11*
X57658000Y-52070000D03*
D10*
X50038000Y-70612000D03*
X47498000Y-70612000D03*
X44958000Y-70612000D03*
D11*
X42418000Y-70612000D03*
D10*
X37084000Y-30988000D03*
X39624000Y-30988000D03*
X42164000Y-30988000D03*
D11*
X44704000Y-30988000D03*
X46990000Y-58420000D03*
D12*
X46990000Y-48260000D03*
D13*
X37338000Y-44704000D03*
D14*
X47498000Y-44704000D03*
D15*
X24130000Y-35052000D03*
D16*
X31750000Y-35052000D03*
D17*
X29464000Y-29972000D03*
D18*
X32004000Y-29972000D03*
D19*
X21590000Y-70832000D03*
X21590000Y-58962000D03*
D20*
X27940000Y-60452000D03*
D21*
X30480000Y-61722000D03*
X27940000Y-62992000D03*
X30480000Y-64262000D03*
X27940000Y-65532000D03*
X30480000Y-66802000D03*
X27940000Y-68072000D03*
X30480000Y-69342000D03*
D19*
X21590000Y-52798000D03*
X21590000Y-40928000D03*
D20*
X27940000Y-42418000D03*
D21*
X30480000Y-43688000D03*
X27940000Y-44958000D03*
X30480000Y-46228000D03*
X27940000Y-47498000D03*
X30480000Y-48768000D03*
X27940000Y-50038000D03*
X30480000Y-51308000D03*
D14*
X35560000Y-48006000D03*
D13*
X35560000Y-58166000D03*
D14*
X49530000Y-40132000D03*
D13*
X49530000Y-29972000D03*
D14*
X36068000Y-39116000D03*
D13*
X46228000Y-39116000D03*
D22*
X43688000Y-48006000D03*
D23*
X41388000Y-48006000D03*
X39088000Y-48006000D03*
D24*
X33528000Y-68834000D02*
X34544000Y-67310000D01*
X33528000Y-72136000D02*
X33528000Y-68834000D01*
X34544000Y-67310000D02*
X42672000Y-67310000D01*
X42672000Y-67310000D02*
X43942000Y-68326000D01*
X32874857Y-72644000D02*
X33528000Y-72136000D01*
X43942000Y-68326000D02*
X44958000Y-70612000D01*
X44958000Y-70612000D02*
X47498000Y-70612000D01*
X26670000Y-72644000D02*
X32874857Y-72644000D01*
X26670000Y-44958000D02*
X27940000Y-44958000D01*
X27940000Y-62992000D02*
X26670000Y-62738000D01*
D25*
X27813000Y-62865000D02*
X27940000Y-62992000D01*
D24*
X26035000Y-72263000D02*
X26670000Y-72644000D01*
X26035000Y-72263000D02*
X26035000Y-61722000D01*
X26035000Y-61722000D02*
X26035000Y-45720000D01*
X26035000Y-45720000D02*
X26670000Y-44958000D01*
X26670000Y-62738000D02*
X26035000Y-61722000D01*
X33051750Y-62992000D02*
X33020000Y-63006941D01*
X33020000Y-63006941D02*
X30353000Y-64262000D01*
X33020000Y-63006941D02*
X57632941Y-63006941D01*
X57632941Y-63006941D02*
X57658000Y-63032000D01*
X57658000Y-63032000D02*
X57658000Y-60532000D01*
X29210000Y-55118000D02*
X29210000Y-64262000D01*
X29210000Y-64262000D02*
X27940000Y-65532000D01*
X29210000Y-55118000D02*
X30480000Y-56134000D01*
X33274000Y-56134000D02*
X35560000Y-58166000D01*
X30480000Y-56134000D02*
X33274000Y-56134000D01*
X35560000Y-58166000D02*
X35560000Y-58166000D01*
X35560000Y-58166000D02*
X35560000Y-58166000D01*
X29210000Y-49022000D02*
X29210000Y-55118000D01*
X27940000Y-48006000D02*
X29210000Y-49022000D01*
X57658000Y-47070000D02*
X53514000Y-47070000D01*
X38354000Y-60706000D02*
X35560000Y-58166000D01*
X49784000Y-60706000D02*
X38354000Y-60706000D01*
X50800000Y-59436000D02*
X49784000Y-60706000D01*
X50800000Y-49784000D02*
X50800000Y-59436000D01*
X53514000Y-47070000D02*
X50800000Y-49784000D01*
X31115000Y-48768000D02*
X31750000Y-48260000D01*
X49530000Y-40132000D02*
X47498000Y-42164000D01*
X36068000Y-42164000D02*
X47498000Y-42164000D01*
X31115000Y-48768000D02*
X30480000Y-49276000D01*
X33020000Y-42164000D02*
X36068000Y-42164000D01*
X33020000Y-42164000D02*
X31750000Y-42926000D01*
X31750000Y-42926000D02*
X31750000Y-44577000D01*
X31750000Y-47244000D02*
X31750000Y-48260000D01*
X31750000Y-44577000D02*
X31750000Y-47244000D01*
X57658000Y-33100000D02*
X51482000Y-33100000D01*
X49530000Y-35052000D02*
X49530000Y-40132000D01*
X51482000Y-33100000D02*
X49530000Y-35052000D01*
M02*
